<?xml version="1.0" encoding="utf-8"?>
<!-- Generator: Adobe Illustrator 19.2.0, SVG Export Plug-In . SVG Version: 6.00 Build 0)  -->
<svg version="1.1" xmlns="http://www.w3.org/2000/svg" xmlns:xlink="http://www.w3.org/1999/xlink" x="0px" y="0px"
	 viewBox="0 0 163.3 240" style="enable-background:new 0 0 163.3 240;" xml:space="preserve">
<style type="text/css">
	.st0{display:none;}
	.st1{fill:none;stroke:#C0C0C0;stroke-width:1.5;stroke-linecap:round;stroke-linejoin:round;stroke-miterlimit:10;}
	.st2{fill:#C0C0C0;}
	.st3{fill:#2FC3C7;}
	.st4{fill:#639DC7;}
	.st5{fill:#9474CB;}
	.st6{fill:#5B5B5B;}
	.st7{fill:#F2F2F2;}
	.st8{fill:none;stroke:#C0C0C0;stroke-width:2;stroke-miterlimit:10;}
	.st9{fill:#FFFFFF;stroke:#2FC3C7;stroke-width:3;stroke-miterlimit:10;}
	.st10{fill:#CCCCCC;}
	.st11{fill:#FFFFFF;}
	.st12{fill:#E6E6E6;}
</style>
<g id="background" class="st0">
</g>
<g id="lines" class="st0">
</g>
<g id="dots">
	<g>
		<polyline class="st1" points="81.7,239.2 59.9,233.8 16.5,191 6,115.8 3,67.1 24,21.2 54.4,4.6 81.7,3 		"/>
		<line class="st1" x1="81.7" y1="208.4" x2="81.7" y2="239.2"/>
		<polyline class="st1" points="81.7,3 59.9,33.9 54.4,4.6 		"/>
		<polyline class="st1" points="81.7,33.9 59.9,33.9 24,21.2 27.3,56 		"/>
		<g>
			<path class="st2" d="M27,63.4l4.1,24.3L19,96L27,63.4 M27.3,56L16.5,99.4l16.2-11L27.3,56L27.3,56z"/>
		</g>
		<polyline class="st1" points="32.8,88.4 81.7,67.1 65.4,99.2 32.7,87.8 32.9,93.3 41.3,105.8 		"/>
		<polyline class="st1" points="68,153.4 43.4,120.6 33.1,135.7 23.2,114.6 33.1,109.2 43.4,104.9 65.4,99.2 		"/>
		<g>
			<path class="st2" d="M35,139.9l22.5,24l-19,12.6L35,139.9 M33.1,135.7l4.1,43.4l22.6-14.9L33.1,135.7L33.1,135.7z"/>
		</g>
		<polyline class="st1" points="37.3,179.1 51.7,191 59.9,164.1 81.7,166.1 68,153.4 73.8,129.9 82.1,99.2 65.4,99.2 32.9,93.3 
			16.5,99.4 23.2,114.6 6,115.8 33.1,135.7 16.8,153.4 37.3,179.1 16.5,191 16.8,153.4 6,115.8 16.5,99.4 3,67.1 27.3,56 59.9,33.9 
			81.7,67.1 27.3,56 		"/>
		<polyline class="st1" points="81.7,191 16.5,191 81.7,239.2 		"/>
		<line class="st1" x1="81.7" y1="207" x2="66.7" y2="196.4"/>
		<polyline class="st1" points="81.7,185.5 76.7,182.8 66.7,184.5 51.7,191 59.9,233.8 		"/>
		<line class="st1" x1="81.7" y1="166.1" x2="76.7" y2="182.8"/>
		<polyline class="st1" points="51.7,191 66.7,196.4 81.7,199 		"/>
		<line class="st1" x1="59.9" y1="233.8" x2="66.7" y2="196.4"/>
		<polyline class="st1" points="23.2,114.6 43.4,120.1 65.7,114.9 82.1,99.2 		"/>
		<line class="st1" x1="68" y1="153.4" x2="82.1" y2="160.5"/>
		<polyline class="st1" points="82.1,125.5 73.8,129.9 65.7,114.9 54.8,109.2 16.5,99.4 		"/>
		<line class="st1" x1="76" y1="157.4" x2="73.8" y2="129.9"/>
		<line class="st1" x1="54.8" y1="109.2" x2="65.4" y2="99.2"/>
		<polyline class="st1" points="43.4,120.1 59.9,164.1 66.7,184.5 		"/>
		<polyline class="st1" points="81.7,239.2 103.5,233.8 146.8,191 157.3,115.8 160.3,67.1 139.3,21.2 108.9,4.6 81.7,3 		"/>
		<polyline class="st1" points="81.7,3 103.5,33.9 108.9,4.6 		"/>
		<polyline class="st1" points="81.7,33.9 103.5,33.9 139.3,21.2 136,56 		"/>
		<g>
			<path class="st2" d="M136.3,63.4l8.1,32.6l-12.2-8.3L136.3,63.4 M136,56l-5.4,32.4l16.2,11L136,56L136,56z"/>
		</g>
		<polyline class="st1" points="130.6,88.4 81.7,67.1 98,99.2 130.7,87.8 130.5,93.3 122.1,105.8 		"/>
		<polyline class="st1" points="95.3,153.4 120,120.6 130.2,135.7 140.2,114.6 130.2,109.2 120,104.9 98,99.2 		"/>
		<g>
			<path class="st2" d="M128.3,139.9l-3.5,36.6l-19-12.6L128.3,139.9 M130.2,135.7l-26.7,28.5l22.6,14.9L130.2,135.7L130.2,135.7z"
				/>
		</g>
		<polyline class="st1" points="126.1,179.1 111.7,191 103.5,164.1 81.7,166.1 95.3,153.4 89.6,129.9 81.3,99.2 98,99.2 130.5,93.3 
			146.8,99.4 140.2,114.6 157.3,115.8 130.2,135.7 146.5,153.4 126.1,179.1 146.8,191 146.5,153.4 157.3,115.8 146.8,99.4 
			160.3,67.1 136,56 103.5,33.9 81.7,67.1 136,56 		"/>
		<polyline class="st1" points="81.7,191 146.8,191 81.7,239.2 		"/>
		<line class="st1" x1="81.7" y1="207" x2="96.7" y2="196.4"/>
		<polyline class="st1" points="81.7,185.5 86.7,182.8 96.7,184.5 111.7,191 103.5,233.8 		"/>
		<line class="st1" x1="81.7" y1="166.1" x2="86.7" y2="182.8"/>
		<polyline class="st1" points="111.7,191 96.7,196.4 81.7,199 		"/>
		<line class="st1" x1="103.5" y1="233.8" x2="96.7" y2="196.4"/>
		<polyline class="st1" points="140.2,114.6 120,120.1 97.7,114.9 81.3,99.2 		"/>
		<line class="st1" x1="95.3" y1="153.4" x2="81.3" y2="160.5"/>
		<polyline class="st1" points="81.3,125.5 89.6,129.9 97.7,114.9 108.5,109.2 146.8,99.4 		"/>
		<line class="st1" x1="89.6" y1="129.9" x2="87.4" y2="157.4"/>
		<line class="st1" x1="108.5" y1="109.2" x2="98" y2="99.2"/>
		<polyline class="st1" points="120,120.1 103.5,164.1 96.7,184.5 		"/>
		<line class="st1" x1="81.7" y1="66.5" x2="81.7" y2="99.8"/>
		<g>
			<circle class="st3" cx="82.1" cy="3" r="3"/>
		</g>
		<g>
			<circle class="st4" cx="81.7" cy="67.1" r="3"/>
		</g>
		<g>
			<circle class="st3" cx="81.6" cy="166.1" r="3"/>
		</g>
		<g>
			<circle class="st4" cx="81.6" cy="125.5" r="3"/>
		</g>
		<g>
			<circle class="st3" cx="73.8" cy="129.9" r="3"/>
		</g>
		<g>
			<circle class="st4" cx="81.6" cy="99.3" r="3"/>
		</g>
		<g>
			<circle class="st5" cx="81.6" cy="207" r="3"/>
		</g>
		<g>
			<circle class="st4" cx="60.2" cy="233.8" r="3"/>
		</g>
		<g>
			<circle class="st4" cx="51.7" cy="191" r="3"/>
		</g>
		<g>
			<circle class="st5" cx="16.5" cy="191" r="3"/>
		</g>
		<g>
			<circle class="st5" cx="37.3" cy="179.1" r="3"/>
		</g>
		<g>
			<circle class="st4" cx="16.8" cy="153.4" r="3"/>
		</g>
		<g>
			<circle class="st5" cx="60" cy="164.1" r="3"/>
		</g>
		<g>
			<circle class="st5" cx="67.7" cy="153.1" r="3"/>
		</g>
		<circle class="st6" cx="43.4" cy="113.2" r="5.4"/>
		<g>
			<circle class="st5" cx="23.2" cy="114.6" r="3"/>
		</g>
		<g>
			<circle class="st3" cx="33.1" cy="135.7" r="3"/>
		</g>
		<g>
			<circle class="st4" cx="6" cy="115.8" r="3"/>
		</g>
		<g>
			<circle class="st4" cx="16.5" cy="99.4" r="3"/>
		</g>
		<g>
			<circle class="st3" cx="32.9" cy="87.8" r="3"/>
		</g>
		<g>
			<circle class="st3" cx="65.5" cy="99.2" r="3"/>
		</g>
		<g>
			<circle class="st5" cx="27.3" cy="56" r="3"/>
		</g>
		<g>
			<circle class="st5" cx="3" cy="67.1" r="3"/>
		</g>
		<g>
			<circle class="st5" cx="24" cy="21.2" r="3"/>
		</g>
		<g>
			<circle class="st5" cx="54.4" cy="4.6" r="3"/>
		</g>
		<g>
			<circle class="st4" cx="60" cy="33.9" r="3"/>
		</g>
		<g>
			<circle class="st4" cx="89.6" cy="129.9" r="3"/>
		</g>
		<g>
			<circle class="st5" cx="103.1" cy="233.8" r="3"/>
		</g>
		<g>
			<circle class="st3" cx="111.7" cy="191" r="3"/>
		</g>
		<g>
			<circle class="st5" cx="146.8" cy="191" r="3"/>
		</g>
		<g>
			<circle class="st4" cx="126.1" cy="179.1" r="3"/>
		</g>
		<g>
			<circle class="st3" cx="146.5" cy="153.4" r="3"/>
		</g>
		<g>
			<circle class="st4" cx="103.4" cy="164.1" r="3"/>
		</g>
		<g>
			<circle class="st4" cx="95.6" cy="153.1" r="3"/>
		</g>
		<circle class="st6" cx="120" cy="113.2" r="5.4"/>
		<g>
			<circle class="st4" cx="140.2" cy="114.6" r="3"/>
		</g>
		<g>
			<circle class="st3" cx="130.2" cy="135.7" r="3"/>
		</g>
		<g>
			<circle class="st4" cx="157.3" cy="115.8" r="3"/>
		</g>
		<g>
			<circle class="st4" cx="146.8" cy="99.4" r="3"/>
		</g>
		<g>
			<circle class="st4" cx="130.5" cy="87.8" r="3"/>
		</g>
		<g>
			<circle class="st4" cx="97.9" cy="99.2" r="3"/>
		</g>
		<g>
			<circle class="st3" cx="136" cy="56" r="3"/>
		</g>
		<g>
			<circle class="st5" cx="160.3" cy="67.1" r="3"/>
		</g>
		<g>
			<circle class="st4" cx="139.3" cy="21.2" r="3"/>
		</g>
		<g>
			<circle class="st4" cx="108.9" cy="4.6" r="3"/>
		</g>
		<g>
			<circle class="st3" cx="103.4" cy="33.9" r="3"/>
		</g>
	</g>
</g>
<g id="text">
</g>
<g id="Layer_6">
</g>
</svg>
